REM DIRINDEX 1\2,1\3\4,1\3\5,1\3\6,1\7,1\8,1\9,1\10,1\11,1\12\13,1\12\14,1\12\15,1\12\16,1\17
REM DIRNAME cjc025,folder01,folder02,folder03,folder04,folder05,folder06,folder07,folder08,folder09,folder10,folder11,folder12,folder13,folder14,folder15,folder16
TITLE ""
FILE "DB3000_5th_0A_04.mp3" MP3
  TRACK 01 AUDIO
    TITLE "17:cjc025_7750"
    INDEX 01 00:00:00
  TRACK 02 AUDIO
    TITLE "2:cjc025_7751"
    INDEX 01 00:03:23
  TRACK 03 AUDIO
    TITLE "2:cjc025_7752"
    INDEX 01 00:08:23
  TRACK 04 AUDIO
    TITLE "2:cjc025_7753"
    INDEX 01 00:13:04
  TRACK 05 AUDIO
    TITLE "2:cjc025_7754"
    INDEX 01 00:17:29
  TRACK 06 AUDIO
    TITLE "2:cjc025_7755"
    INDEX 01 00:21:55
  TRACK 07 AUDIO
    TITLE "2:cjc025_7756"
    INDEX 01 00:26:09
  TRACK 08 AUDIO
    TITLE "2:cjc025_7757"
    INDEX 01 00:30:42
  TRACK 09 AUDIO
    TITLE "2:cjc025_7758"
    INDEX 01 00:34:61
  TRACK 10 AUDIO
    TITLE "2:cjc025_7759"
    INDEX 01 00:39:45
  TRACK 11 AUDIO
    TITLE "2:cjc025_7760"
    INDEX 01 00:44:16
  TRACK 12 AUDIO
    TITLE "2:cjc025_7761"
    INDEX 01 00:49:45
  TRACK 13 AUDIO
    TITLE "2:cjc025_7762"
    INDEX 01 00:54:13
  TRACK 14 AUDIO
    TITLE "2:cjc025_7763"
    INDEX 01 00:58:60
  TRACK 15 AUDIO
    TITLE "2:cjc025_7764"
    INDEX 01 01:04:37
  TRACK 16 AUDIO
    TITLE "2:cjc025_7765"
    INDEX 01 01:09:26
  TRACK 17 AUDIO
    TITLE "2:cjc025_7766"
    INDEX 01 01:14:17
  TRACK 18 AUDIO
    TITLE "2:cjc025_7767"
    INDEX 01 01:19:03
  TRACK 19 AUDIO
    TITLE "2:cjc025_7768"
    INDEX 01 01:23:62
  TRACK 20 AUDIO
    TITLE "2:cjc025_7769"
    INDEX 01 01:28:41
  TRACK 21 AUDIO
    TITLE "2:cjc025_7770"
    INDEX 01 01:33:25
  TRACK 22 AUDIO
    TITLE "2:cjc025_7771"
    INDEX 01 01:38:38
  TRACK 23 AUDIO
    TITLE "2:cjc025_7772"
    INDEX 01 01:43:31
  TRACK 24 AUDIO
    TITLE "2:cjc025_7773"
    INDEX 01 01:48:18
  TRACK 25 AUDIO
    TITLE "2:cjc025_7774"
    INDEX 01 01:52:67
  TRACK 26 AUDIO
    TITLE "2:cjc025_7775"
    INDEX 01 01:57:64
  TRACK 27 AUDIO
    TITLE "2:cjc025_7776"
    INDEX 01 02:02:58
  TRACK 28 AUDIO
    TITLE "2:cjc025_7777"
    INDEX 01 02:07:55
  TRACK 29 AUDIO
    TITLE "2:cjc025_7778"
    INDEX 01 02:12:54
  TRACK 30 AUDIO
    TITLE "2:cjc025_7779"
    INDEX 01 02:17:47
  TRACK 31 AUDIO
    TITLE "2:cjc025_7780"
    INDEX 01 02:22:43
  TRACK 32 AUDIO
    TITLE "2:cjc025_7781"
    INDEX 01 02:27:34
  TRACK 33 AUDIO
    TITLE "2:cjc025_7782"
    INDEX 01 02:32:35
  TRACK 34 AUDIO
    TITLE "2:cjc025_7783"
    INDEX 01 02:37:23
  TRACK 35 AUDIO
    TITLE "2:cjc025_7784"
    INDEX 01 02:42:28
  TRACK 36 AUDIO
    TITLE "2:cjc025_7785"
    INDEX 01 02:47:41
  TRACK 37 AUDIO
    TITLE "2:cjc025_7786"
    INDEX 01 02:52:46
  TRACK 38 AUDIO
    TITLE "2:cjc025_7787"
    INDEX 01 02:57:31
  TRACK 39 AUDIO
    TITLE "2:cjc025_7788"
    INDEX 01 03:02:32
  TRACK 40 AUDIO
    TITLE "2:cjc025_7789"
    INDEX 01 03:07:53
  TRACK 41 AUDIO
    TITLE "2:cjc025_7790"
    INDEX 01 03:12:66
  TRACK 42 AUDIO
    TITLE "2:cjc025_7791"
    INDEX 01 03:17:54
  TRACK 43 AUDIO
    TITLE "2:cjc025_7792"
    INDEX 01 03:22:43
  TRACK 44 AUDIO
    TITLE "2:cjc025_7793"
    INDEX 01 03:27:25
  TRACK 45 AUDIO
    TITLE "2:cjc025_7794"
    INDEX 01 03:33:33
  TRACK 46 AUDIO
    TITLE "2:cjc025_7795"
    INDEX 01 03:38:15
  TRACK 47 AUDIO
    TITLE "2:cjc025_7796"
    INDEX 01 03:43:37
  TRACK 48 AUDIO
    TITLE "2:cjc025_7797"
    INDEX 01 03:48:29
  TRACK 49 AUDIO
    TITLE "2:cjc025_7798"
    INDEX 01 03:53:45
  TRACK 50 AUDIO
    TITLE "2:cjc025_7799"
    INDEX 01 03:58:43
  TRACK 51 AUDIO
    TITLE "2:cjc025_7800"
    INDEX 01 04:03:32
  TRACK 52 AUDIO
    TITLE "2:cjc025_7801"
    INDEX 01 04:08:49
  TRACK 53 AUDIO
    TITLE "2:cjc025_7802"
    INDEX 01 04:13:44
  TRACK 54 AUDIO
    TITLE "2:cjc025_7803"
    INDEX 01 04:18:55
  TRACK 55 AUDIO
    TITLE "2:cjc025_7804"
    INDEX 01 04:23:70
  TRACK 56 AUDIO
    TITLE "2:cjc025_7805"
    INDEX 01 04:30:33
  TRACK 57 AUDIO
    TITLE "2:cjc025_7806"
    INDEX 01 04:35:46
  TRACK 58 AUDIO
    TITLE "2:cjc025_7807"
    INDEX 01 04:41:35
  TRACK 59 AUDIO
    TITLE "2:cjc025_7808"
    INDEX 01 04:46:34
  TRACK 60 AUDIO
    TITLE "2:cjc025_7809"
    INDEX 01 04:51:33
  TRACK 61 AUDIO
    TITLE "2:cjc025_7810"
    INDEX 01 04:56:38
  TRACK 62 AUDIO
    TITLE "2:cjc025_7811"
    INDEX 01 05:01:41
  TRACK 63 AUDIO
    TITLE "2:cjc025_7812"
    INDEX 01 05:06:46
  TRACK 64 AUDIO
    TITLE "2:cjc025_7813"
    INDEX 01 05:12:22
  TRACK 65 AUDIO
    TITLE "2:cjc025_7814"
    INDEX 01 05:17:38
  TRACK 66 AUDIO
    TITLE "2:cjc025_7815"
    INDEX 01 05:22:67
  TRACK 67 AUDIO
    TITLE "2:cjc025_7816"
    INDEX 01 05:28:09
  TRACK 68 AUDIO
    TITLE "2:cjc025_7817"
    INDEX 01 05:34:35
  TRACK 69 AUDIO
    TITLE "2:cjc025_7818"
    INDEX 01 05:39:58
  TRACK 70 AUDIO
    TITLE "2:cjc025_7819"
    INDEX 01 05:44:69
  TRACK 71 AUDIO
    TITLE "2:cjc025_7820"
    INDEX 01 05:50:32
  TRACK 72 AUDIO
    TITLE "2:cjc025_7821"
    INDEX 01 05:55:59
  TRACK 73 AUDIO
    TITLE "2:cjc025_7822"
    INDEX 01 06:00:72
  TRACK 74 AUDIO
    TITLE "2:cjc025_7823"
    INDEX 01 06:05:59
  TRACK 75 AUDIO
    TITLE "2:cjc025_7824"
    INDEX 01 06:10:48
  TRACK 76 AUDIO
    TITLE "2:cjc025_7825"
    INDEX 01 06:15:46
  TRACK 77 AUDIO
    TITLE "0:"
    INDEX 01 06:20:08
